<mxfile host="app.diagrams.net" agent="Mozilla/5.0 (Windows NT 10.0; Win64; x64) AppleWebKit/537.36 (KHTML, like Gecko) Chrome/134.0.0.0 Safari/537.36" version="25.0.3">
  <diagram name="Page-1" id="s5SjI72cEqGY2J3MmayP">
    <mxGraphModel dx="1167" dy="580" grid="1" gridSize="10" guides="1" tooltips="1" connect="1" arrows="1" fold="1" page="1" pageScale="1" pageWidth="827" pageHeight="1169" math="0" shadow="0">
      <root>
        <mxCell id="0" />
        <mxCell id="1" parent="0" />
        <mxCell id="R5K-bJTAC8WpjGURZwCE-2" value="" style="image;sketch=0;aspect=fixed;html=1;points=[];align=center;fontSize=12;image=img/lib/mscae/Virtual_Machine_2.svg;" vertex="1" parent="1">
          <mxGeometry x="650" y="90" width="76.08" height="70" as="geometry" />
        </mxCell>
        <mxCell id="R5K-bJTAC8WpjGURZwCE-5" value="" style="image;aspect=fixed;perimeter=ellipsePerimeter;html=1;align=center;shadow=0;dashed=0;spacingTop=3;image=img/lib/active_directory/web_server.svg;" vertex="1" parent="1">
          <mxGeometry x="390" y="200" width="80" height="100" as="geometry" />
        </mxCell>
        <mxCell id="R5K-bJTAC8WpjGURZwCE-21" value="" style="shape=image;html=1;verticalAlign=top;verticalLabelPosition=bottom;labelBackgroundColor=#ffffff;imageAspect=0;aspect=fixed;image=https://cdn1.iconfinder.com/data/icons/unicons-line-vol-3/24/docker-128.png" vertex="1" parent="1">
          <mxGeometry x="659.04" y="210" width="58" height="58" as="geometry" />
        </mxCell>
        <mxCell id="R5K-bJTAC8WpjGURZwCE-22" value="DB" style="shape=datastore;whiteSpace=wrap;html=1;" vertex="1" parent="1">
          <mxGeometry x="260" y="220" width="60" height="60" as="geometry" />
        </mxCell>
        <mxCell id="R5K-bJTAC8WpjGURZwCE-24" value="" style="sketch=0;outlineConnect=0;fontColor=#232F3E;gradientColor=none;fillColor=#232F3D;strokeColor=none;dashed=0;verticalLabelPosition=bottom;verticalAlign=top;align=center;html=1;fontSize=12;fontStyle=0;aspect=fixed;pointerEvents=1;shape=mxgraph.aws4.user;" vertex="1" parent="1">
          <mxGeometry x="400" y="420" width="60" height="60" as="geometry" />
        </mxCell>
        <mxCell id="R5K-bJTAC8WpjGURZwCE-33" value="" style="group" vertex="1" connectable="0" parent="1">
          <mxGeometry x="425" y="300" width="10" height="110" as="geometry" />
        </mxCell>
        <mxCell id="R5K-bJTAC8WpjGURZwCE-25" value="" style="endArrow=classic;html=1;rounded=0;entryX=0.5;entryY=1;entryDx=0;entryDy=0;targetPerimeterSpacing=0;sourcePerimeterSpacing=0;" edge="1" parent="R5K-bJTAC8WpjGURZwCE-33">
          <mxGeometry width="50" height="50" relative="1" as="geometry">
            <mxPoint y="110" as="sourcePoint" />
            <mxPoint as="targetPoint" />
          </mxGeometry>
        </mxCell>
        <mxCell id="R5K-bJTAC8WpjGURZwCE-32" value="" style="endArrow=none;html=1;rounded=0;entryX=0.5;entryY=1;entryDx=0;entryDy=0;startArrow=classic;startFill=1;endFill=0;" edge="1" parent="R5K-bJTAC8WpjGURZwCE-33">
          <mxGeometry width="50" height="50" relative="1" as="geometry">
            <mxPoint x="10" y="110" as="sourcePoint" />
            <mxPoint x="10" as="targetPoint" />
          </mxGeometry>
        </mxCell>
        <mxCell id="R5K-bJTAC8WpjGURZwCE-34" value="" style="group;rotation=90;" vertex="1" connectable="0" parent="1">
          <mxGeometry x="350" y="210" width="10" height="110" as="geometry" />
        </mxCell>
        <mxCell id="R5K-bJTAC8WpjGURZwCE-37" value="" style="group" vertex="1" connectable="0" parent="R5K-bJTAC8WpjGURZwCE-34">
          <mxGeometry x="-20" y="50" width="60" as="geometry" />
        </mxCell>
        <mxCell id="R5K-bJTAC8WpjGURZwCE-35" value="" style="endArrow=classic;html=1;rounded=0;entryX=0.5;entryY=1;entryDx=0;entryDy=0;targetPerimeterSpacing=0;sourcePerimeterSpacing=0;" edge="1" parent="R5K-bJTAC8WpjGURZwCE-37">
          <mxGeometry width="50" height="50" relative="1" as="geometry">
            <mxPoint as="sourcePoint" />
            <mxPoint x="59.99999999999999" as="targetPoint" />
          </mxGeometry>
        </mxCell>
        <mxCell id="R5K-bJTAC8WpjGURZwCE-36" value="" style="endArrow=none;html=1;rounded=0;entryX=0.5;entryY=1;entryDx=0;entryDy=0;startArrow=classic;startFill=1;endFill=0;" edge="1" parent="R5K-bJTAC8WpjGURZwCE-37">
          <mxGeometry width="50" height="50" relative="1" as="geometry">
            <mxPoint as="sourcePoint" />
            <mxPoint x="59.99999999999999" as="targetPoint" />
          </mxGeometry>
        </mxCell>
        <mxCell id="R5K-bJTAC8WpjGURZwCE-44" value="" style="endArrow=classic;html=1;rounded=0;exitX=1;exitY=0;exitDx=0;exitDy=0;" edge="1" parent="1" source="R5K-bJTAC8WpjGURZwCE-5">
          <mxGeometry width="50" height="50" relative="1" as="geometry">
            <mxPoint x="470" y="280" as="sourcePoint" />
            <mxPoint x="630" y="125" as="targetPoint" />
          </mxGeometry>
        </mxCell>
        <mxCell id="R5K-bJTAC8WpjGURZwCE-45" value="" style="endArrow=none;html=1;rounded=0;exitX=1;exitY=0;exitDx=0;exitDy=0;startArrow=classic;startFill=1;endFill=0;" edge="1" parent="1">
          <mxGeometry width="50" height="50" relative="1" as="geometry">
            <mxPoint x="460" y="230" as="sourcePoint" />
            <mxPoint x="632" y="140" as="targetPoint" />
          </mxGeometry>
        </mxCell>
        <mxCell id="R5K-bJTAC8WpjGURZwCE-46" value="" style="endArrow=classic;startArrow=classic;html=1;rounded=0;" edge="1" parent="1" source="R5K-bJTAC8WpjGURZwCE-21">
          <mxGeometry width="50" height="50" relative="1" as="geometry">
            <mxPoint x="470" y="280" as="sourcePoint" />
            <mxPoint x="688" y="170" as="targetPoint" />
          </mxGeometry>
        </mxCell>
      </root>
    </mxGraphModel>
  </diagram>
</mxfile>
